<svg width="184" height="214" viewBox="0 0 184 214" fill="none" xmlns="http://www.w3.org/2000/svg">
<path d="M97.5006 1.49594H99.9114C104.417 1.49594 108.738 3.29997 111.924 6.51116C115.11 9.72234 116.899 14.0777 116.899 18.619V35.15H80.5126V18.619C80.5126 14.0777 82.3024 9.72234 85.4883 6.51116C88.6742 3.29997 92.9951 1.49594 97.5006 1.49594V1.49594Z" stroke="#070707" stroke-width="2" stroke-linecap="round" stroke-linejoin="round"/>
<path d="M109.777 1.49594H112.191C116.696 1.49594 121.017 3.29997 124.203 6.51116C127.389 9.72234 129.179 14.0777 129.179 18.619V35.15H92.7894V18.619C92.7894 16.3703 93.2288 14.1437 94.0825 12.0663C94.9363 9.9888 96.1876 8.10118 97.7651 6.51116C99.3426 4.92114 101.215 3.65987 103.276 2.79935C105.337 1.93884 107.547 1.49594 109.777 1.49594Z" stroke="#070707" stroke-width="2" stroke-linecap="round" stroke-linejoin="round"/>
<path d="M183.862 213.541H135.124L155.784 36.5874H163.198L183.862 213.541Z" fill="#1C0E0C"/>
<path d="M155.784 35.1474L135.124 212.101H21.865L42.5281 35.1474H155.784Z" stroke="#070707" stroke-width="2" stroke-linecap="round" stroke-linejoin="round"/>
<path d="M141.33 89.1713H124.739L126.853 64.8154C127.253 60.1986 131.292 56.4556 135.872 56.4556C140.455 56.4556 143.843 60.1986 143.443 64.8154L141.33 89.1713Z" fill="white"/>
<path d="M139.871 87.7004H123.28L125.393 63.3446C125.796 58.7278 129.833 54.9847 134.416 54.9847C138.996 54.9847 142.387 58.7278 141.984 63.3446L139.871 87.7004Z" stroke="#070707" stroke-width="2" stroke-linecap="round" stroke-linejoin="round"/>
<path d="M135.004 63.0278C135.75 62.3083 135.824 61.1666 135.17 60.4779C134.516 59.7892 133.381 59.8141 132.636 60.5337C131.89 61.2532 131.816 62.3948 132.47 63.0836C133.124 63.7723 134.259 63.7473 135.004 63.0278Z" stroke="#070707" stroke-width="2" stroke-linecap="round" stroke-linejoin="round"/>
<path d="M133.882 61.5299L136.247 33.8885C136.326 32.9656 136.747 32.1062 137.424 31.4803C138.102 30.8543 138.987 30.5071 139.907 30.5074C140.882 30.5074 141.817 30.8975 142.506 31.5922C143.196 32.2868 143.584 33.229 143.584 34.2117" stroke="#070707" stroke-width="2" stroke-linecap="round" stroke-linejoin="round"/>
<path d="M132.787 78.9011C133.209 78.8336 133.601 78.6379 133.91 78.3402C134.177 78.0774 134.342 77.7271 134.375 77.3527C134.402 77.1853 134.39 77.0139 134.341 76.8519C134.291 76.6899 134.204 76.5418 134.087 76.4195C133.79 76.1599 133.44 75.9685 133.062 75.8586L132.195 75.5923C131.679 75.4544 131.178 75.262 130.702 75.0184C130.313 74.8151 129.991 74.5027 129.774 74.1188C129.536 73.6579 129.447 73.134 129.517 72.6196C129.563 71.8705 129.895 71.1684 130.443 70.6601C131.075 70.1167 131.87 69.8043 132.7 69.7735H133.575C134.001 69.8081 134.419 69.9111 134.813 70.0785C135.154 70.2317 135.449 70.4702 135.672 70.7713C135.849 70.9907 135.99 71.2378 136.088 71.5028C136.175 71.7209 136.213 71.9558 136.198 72.1904C136.171 72.4227 136.061 72.6371 135.889 72.794C135.717 72.9508 135.494 73.0395 135.262 73.0435C134.811 73.0435 134.541 72.7979 134.452 72.3068C134.414 72.0382 134.3 71.7865 134.123 71.5819C133.947 71.3773 133.715 71.2286 133.457 71.1539L132.582 71.1254C132.241 71.214 131.921 71.3705 131.641 71.5856C131.518 71.6931 131.42 71.8252 131.351 71.9734C131.282 72.1216 131.244 72.2827 131.241 72.4464C131.216 72.5935 131.223 72.7444 131.264 72.888C131.304 73.0316 131.376 73.1642 131.474 73.2761C131.727 73.5083 132.026 73.6844 132.351 73.7931L133.205 74.0516C133.759 74.2093 134.203 74.3515 134.529 74.4808C134.849 74.6087 135.14 74.8004 135.385 75.0443C135.648 75.2975 135.846 75.6104 135.965 75.9568C136.091 76.3306 136.134 76.7275 136.093 77.12C136.049 77.6476 135.879 78.1567 135.598 78.6038C135.302 79.0734 134.895 79.4616 134.413 79.7335C133.876 80.0337 133.28 80.2103 132.667 80.2505H131.79C131.313 80.2063 130.847 80.0777 130.415 79.8705C130.055 79.6952 129.734 79.4481 129.471 79.1441C129.244 78.8795 129.07 78.5732 128.958 78.2419C128.86 77.9459 128.821 77.6329 128.845 77.3217C128.877 77.0827 128.994 76.8633 129.173 76.7038C129.353 76.5443 129.583 76.4553 129.822 76.4531C130.004 76.4462 130.184 76.4969 130.335 76.5979C130.469 76.6977 130.56 76.8444 130.592 77.0089C130.662 77.3037 130.747 77.5945 130.848 77.88C130.929 78.0901 131.055 78.2791 131.218 78.4332C131.42 78.6154 131.663 78.7457 131.925 78.8132L132.787 78.9011Z" fill="#070707"/>
<path d="M132.149 81.3025H132.118C132.07 81.2986 132.023 81.2852 131.981 81.2631C131.938 81.2409 131.9 81.2105 131.869 81.1734C131.838 81.1364 131.814 81.0936 131.8 81.0475C131.785 81.0013 131.78 80.9527 131.784 80.9044L132.831 68.8713C132.839 68.7743 132.885 68.6845 132.959 68.6217C133.033 68.559 133.128 68.5283 133.224 68.5365C133.321 68.5448 133.41 68.5912 133.472 68.6656C133.534 68.74 133.565 68.8363 133.557 68.9333L132.513 80.9665C132.504 81.0582 132.463 81.1434 132.395 81.2055C132.328 81.2677 132.24 81.3023 132.149 81.3025Z" fill="#070707"/>
<path d="M56.3873 59.5808H58.1363C61.4053 59.5808 64.5403 60.8897 66.8518 63.2196C69.1633 65.5494 70.4619 68.7094 70.4619 72.0043V83.9987H44.0617V72.0043C44.0617 68.7094 45.3603 65.5494 47.6718 63.2196C49.9833 60.8897 53.1183 59.5808 56.3873 59.5808V59.5808Z" stroke="#070707" stroke-width="2" stroke-linecap="round" stroke-linejoin="round"/>
<path d="M65.2942 59.5808H67.0535C70.3202 59.5849 73.4517 60.896 75.7599 63.226C78.0682 65.556 79.3643 68.7142 79.3637 72.0069V84.0013H52.9686V72.0069C52.9683 70.3752 53.2868 68.7594 53.9061 67.2518C54.5254 65.7443 55.4332 64.3744 56.5778 63.2205C57.7224 62.0666 59.0812 61.1513 60.5768 60.5268C62.0724 59.9023 63.6753 59.5808 65.2942 59.5808V59.5808Z" stroke="#070707" stroke-width="2" stroke-linecap="round" stroke-linejoin="round"/>
<path d="M119.049 212.395H83.685L98.6778 83.9987H104.056L119.049 212.395Z" fill="#F4F1ED" stroke="#070707" stroke-width="2" stroke-linecap="round" stroke-linejoin="round"/>
<path d="M98.6778 83.9987L83.685 212.395H1.50703L16.4998 83.9987H98.6778Z" fill="#2D2D2D" stroke="black" stroke-width="2" stroke-linecap="round" stroke-linejoin="round"/>
</svg>
