<svg width="1185" height="711" viewBox="0 0 1185 711" fill="none" xmlns="http://www.w3.org/2000/svg">
<path fill-rule="evenodd" clip-rule="evenodd" d="M835.031 16.924C791.173 60.7151 842.844 79.8151 981.757 71.1539C1095.49 64.0546 1120.25 58.2589 1120.25 38.7064C1120.25 7.29314 1092.55 0 973.167 0C877.4 0 848.434 3.54423 835.031 16.924ZM263.775 29.9374C260.915 34.5481 255.098 102.309 250.835 180.508C244.015 305.784 240.702 323.44 223.014 329.042C209.459 333.341 202.941 345.654 202.941 366.995C202.941 397.094 205.121 398.559 248.807 397.912C274.027 397.535 365.089 389.046 451.154 379.06C606.017 361.07 607.636 360.606 607.636 333.955V307.023H472.738H337.839L337.224 177.75C336.89 106.65 335.67 42.423 334.526 35.0114C332.271 20.4466 272.311 16.1483 263.775 29.9374ZM578.25 103.073C572.465 193.08 557.713 218.719 517.707 208.28C483.832 199.436 472.155 163.616 484.814 107.372C498.875 44.8792 491.58 30.1852 448.531 34.3219L413.382 37.7045L410.156 118.371C406.238 216.607 412.26 243.539 441.7 259.256C465.949 272.216 556.687 274.942 591.923 263.781C621.309 254.473 641.749 210.715 650.911 137.535C661.822 50.3517 652.713 21.5455 614.24 21.5455C583.613 21.5455 583.473 21.8471 578.25 103.073ZM678.193 42.3368C668.599 60.2195 670.488 67.8359 688.273 83.0362C706.942 98.9906 710.277 115.247 710.957 193.607C711.399 244.142 715.036 307.292 719.051 333.955C725.569 377.261 729.648 382.809 757.286 385.965L788.227 389.488L783.921 313.249C781.546 271.311 780.737 237 782.129 237C783.521 237 806.648 270.934 833.52 312.409C872.23 372.133 887.922 387.818 908.955 387.818C923.556 387.818 938.136 383.584 941.341 378.403C944.547 373.221 928.327 339.869 905.286 304.286C838.376 200.954 837.923 199.694 855.924 165.254C878.393 122.238 876.277 88.972 850.55 80.8278C823.117 72.1342 807.285 81.9805 807.285 107.727C807.285 129.671 788.669 146.595 777.165 135.112C773.258 131.212 769.654 105.271 769.168 77.4775C768.273 27.352 767.949 26.8995 729.13 23.6354C698.697 21.0607 687.366 25.2297 678.193 42.3368ZM1077.08 161.612C1077.08 247.503 1065.03 280.091 1033.27 280.091C1004.8 280.091 990.747 240.695 990.747 160.891V96.9546H952.975H915.204L915.268 164.284C915.376 293.04 953.072 355.5 1030.69 355.5C1112.47 355.5 1142.95 308.66 1145.5 179.097L1147.23 91.5682L1112.15 88.1963L1077.08 84.8137V161.612ZM80.2917 399.377C59.8951 415.386 51.8552 431.696 51.8552 457.055C51.8552 491.172 64.2766 508.634 127.139 562.875C139.15 573.238 148.982 591.746 148.982 603.984C148.982 621.877 143.208 625.583 119.552 622.836C95.6701 620.078 86.7452 610.286 72.241 570.955C57.9418 532.184 49.2435 522.477 28.8253 522.477C7.40349 522.477 2.81696 528.542 0.356415 560.182C-5.62227 636.797 64.3521 700.227 154.863 700.227C183.516 700.227 202.143 691.911 225.356 668.739C280.222 613.97 259.016 555.269 164.382 499.898C138.104 484.525 116.606 465.145 116.606 456.818C116.606 439.355 133.755 436.586 143.586 452.455C147.255 458.38 157.248 463.227 165.806 463.227C190.552 463.227 184.422 412.725 157.367 393.819C125.887 371.799 114.351 372.629 80.2917 399.377ZM341.282 409.514C218.686 421.214 200.901 427.214 204.938 455.525C207.636 474.496 214.424 478.751 238.015 476.284L267.692 473.181L268.771 557.079C270.207 669.557 278.02 694.841 311.345 694.841H337.839L333.868 579.034L329.907 463.227H367.592C434.2 463.227 472.738 451.313 472.738 430.715C472.738 413.468 449.557 396.296 431.383 400.099C427.423 400.929 386.867 405.162 341.282 409.514ZM656.199 418.65C656.199 431.318 662.771 441.682 670.8 441.682C681.819 441.682 687.269 472.697 692.967 567.949C697.133 637.39 701.482 694.992 702.647 695.961C713.558 704.989 772.805 708.845 784.579 701.294C805.321 687.989 791.259 657.136 764.452 657.136C744.886 657.136 742.534 650.285 742.534 593.211C742.534 531.494 743.559 529.178 772.212 525.881C789.878 523.856 801.889 515.938 801.889 506.318C801.889 496.698 789.878 488.78 772.212 486.755C739.825 483.028 730.846 463.324 761.42 463.066C771.812 462.969 787.59 458.304 796.493 452.681C824.692 434.873 787.115 410.969 718.252 402.9C659.793 396.049 656.199 396.953 656.199 418.65ZM515.905 430.274C515.905 441.779 520.761 454.178 526.697 457.841C532.632 461.504 537.489 504.81 537.489 554.084C537.489 673.403 545.572 711 571.213 711C588.826 711 591.448 702.328 591.448 644.08V577.16L621.449 613.022C646.843 643.39 653.436 646.504 664.423 633.296C674.804 620.811 672.236 610.717 651.494 582.665C625.971 548.138 625.896 547.341 646.292 526.98C696.55 476.812 648.796 409.364 563.011 409.364C523.578 409.364 515.905 412.768 515.905 430.274ZM912.506 420.998C902.113 427.042 893.62 439.01 893.62 447.607C893.62 459.338 909.743 463.626 958.371 464.843C993.984 465.727 1029.12 466.944 1036.46 467.536C1043.8 468.129 1051.44 460.146 1053.44 449.794C1059.95 416.032 957.173 395.036 912.506 420.998ZM1087.87 520.377C1087.87 582.266 1090.91 648.044 1094.62 666.563C1100.78 697.319 1104.98 700.227 1143.18 700.227C1178.02 700.227 1185 696.575 1185 678.348C1185 666.304 1177.72 653.668 1168.81 650.263C1156.54 645.556 1152.31 624.129 1151.35 561.722C1149.56 446.282 1141.52 415.493 1112.09 411.303C1088.33 407.931 1087.87 409.956 1087.87 520.377ZM618.428 484.773C618.428 492.669 612.363 501.158 604.938 503.625C596.909 506.297 591.448 498.659 591.448 484.773C591.448 470.887 596.909 463.249 604.938 465.92C612.363 468.387 618.428 476.876 618.428 484.773ZM392.64 501.04C378.838 515.906 364.506 547.028 360.794 570.2C340.904 694.345 465.129 751.053 511.944 639.2C557.864 529.49 465.518 422.549 392.64 501.04ZM918.56 511.64C885.979 534.424 888.461 621.177 899.739 629.407C911.016 637.638 916.374 672.26 920.09 672.321C937.658 672.611 943.77 677.454 945.032 656.296C949.5 581.393 956.558 560.16 974.667 567.098C986.095 571.482 990.747 589.678 990.747 630.043C990.747 689.896 1008.88 718.767 1039.17 707.154C1051.46 702.446 1055.5 683.325 1055.5 629.709C1055.5 565.396 1052.45 555.485 1023.95 527.034C989.128 492.271 953.677 487.1 918.56 511.64ZM445.758 576.341C445.758 599.05 440.265 619.464 433.552 621.694C418.282 626.779 404.824 576.33 413.857 547.901C424.886 513.213 445.758 531.828 445.758 576.341ZM854.994 656.056C846.647 674.999 854.994 692.491 865.844 695.961C879.776 700.417 907.895 683.165 901.776 664.011C895.657 644.857 863.342 637.112 854.994 656.056Z" fill="black"/>
</svg>
